<?xml version="1.0" encoding="UTF-8"?>
<!DOCTYPE svg PUBLIC "-//W3C//DTD SVG 1.1//EN" "http://www.w3.org/Graphics/SVG/1.1/DTD/svg11.dtd">
<!-- Creator: CorelDRAW 2020 (64-Bit) -->
<svg xmlns="http://www.w3.org/2000/svg" xml:space="preserve" width="12px" height="12px" version="1.1" style="shape-rendering:geometricPrecision; text-rendering:geometricPrecision; image-rendering:optimizeQuality; fill-rule:evenodd; clip-rule:evenodd"
viewBox="0 0 1.24 1.24"
 xmlns:xlink="http://www.w3.org/1999/xlink"
 xmlns:xodm="http://www.corel.com/coreldraw/odm/2003">
 <defs>
  <style type="text/css">
   <![CDATA[
    .fil0 {fill:#CCCCCC}
    .fil1 {fill:white}
    .fil2 {fill:black;fill-rule:nonzero}
    .fil3 {fill:#E46002;fill-rule:nonzero}
   ]]>
  </style>
 </defs>
 <g id="Layer_x0020_1">
  <metadata id="CorelCorpID_0Corel-Layer"/>
  <g id="_1646333862816">
   <path class="fil0" d="M0.08 0.06l1.14 0c0.01,0 0.02,0.01 0.02,0.02l0 1.14c0,0.01 -0.01,0.02 -0.02,0.02l-1.14 0c-0.01,0 -0.02,-0.01 -0.02,-0.02l0 -1.14c0,-0.01 0.01,-0.02 0.02,-0.02z"/>
   <path class="fil1" d="M0.04 0.02l1.14 0c0.01,0 0.02,0.01 0.02,0.02l0 1.14c0,0.02 -0.01,0.02 -0.02,0.02l-1.14 0c-0.01,0 -0.02,0 -0.02,-0.02l0 -1.14c0,-0.01 0.01,-0.02 0.02,-0.02z"/>
   <g>
    <g>
     <path class="fil2" d="M0.37 0.33c0.01,-0.01 0.03,-0.01 0.04,0 0.01,0 0.01,0.02 0,0.03l-0.04 -0.03zm-0.15 0.19l0.15 -0.19 0.04 0.03 -0.16 0.19 -0.01 0.01 -0.02 -0.04zm0.03 0.03c0,0.01 -0.02,0.01 -0.03,0.01 -0.01,-0.01 -0.01,-0.03 0,-0.04l0.03 0.03zm0.65 0.01l-0.66 0 0 -0.04 0.66 0 0 0.04zm0 -0.04c0.01,0 0.02,0.01 0.02,0.02 0,0.01 -0.01,0.02 -0.02,0.02l0 -0.04z"/>
    </g>
    <g>
     <path class="fil2" d="M0.85 0.89c-0.01,0.01 -0.02,0.02 -0.03,0.01 -0.01,-0.01 -0.02,-0.03 -0.01,-0.04l0.04 0.03zm0.16 -0.19l-0.16 0.19 -0.04 -0.03 0.16 -0.19 0.02 -0.01 0.02 0.04zm-0.04 -0.03c0.01,-0.01 0.02,-0.01 0.03,0 0.01,0 0.01,0.02 0.01,0.03l-0.04 -0.03zm-0.65 -0.01l0.67 0 0 0.05 -0.67 0 0 -0.05zm0 0.05c-0.01,0 -0.02,-0.01 -0.02,-0.02 0,-0.02 0.01,-0.03 0.02,-0.03l0 0.05z"/>
    </g>
   </g>
   <g>
    <path class="fil3" d="M1.06 0l0 0.04 -0.02 0 0 -0.04 0.02 0zm0.14 0.04l-0.14 0 0 -0.04 0.14 0 0.02 0.02 -0.02 0.02zm0 -0.04c0.01,0 0.02,0.01 0.02,0.02 0,0.01 -0.01,0.02 -0.02,0.02l0 -0.04zm-0.02 0.18l0 -0.16 0.04 0 0 0.16 -0.04 0zm0 0l0.04 0 0 0.02 -0.04 0 0 -0.02z"/>
   </g>
   <g>
    <path class="fil3" d="M1.06 1.22l-0.02 0 0 -0.04 0.02 0 0 0.04zm0.14 -0.04l0.02 0.02 -0.02 0.02 -0.14 0 0 -0.04 0.14 0zm0 0.04l0 -0.04c0.01,0 0.02,0.01 0.02,0.02 0,0.01 -0.01,0.02 -0.02,0.02zm-0.02 -0.17l0.04 0 0 0.15 -0.04 0 0 -0.15zm0 0l0 -0.02 0.04 0 0 0.02 -0.04 0z"/>
   </g>
   <g>
    <path class="fil3" d="M0.16 0l0.02 0 0.01 0.04 -0.02 0 -0.01 -0.04zm-0.14 0.04l-0.02 -0.02 0.02 -0.02 0.14 0 0.01 0.04 -0.15 0zm0 -0.04l0 0.04c-0.01,0 -0.02,-0.01 -0.02,-0.02 0,-0.01 0.01,-0.02 0.02,-0.02zm0.02 0.18l-0.04 0 0 -0.16 0.04 0 0 0.16zm0 0l0 0.02 -0.04 0 0 -0.02 0.04 0z"/>
   </g>
   <g>
    <path class="fil3" d="M0.16 1.22l0.01 -0.04 0.02 0 -0.01 0.04 -0.02 0zm-0.14 -0.04l0.15 0 -0.01 0.04 -0.14 0 -0.02 -0.02 0.02 -0.02zm0 0.04c-0.01,0 -0.02,-0.01 -0.02,-0.02 0,-0.01 0.01,-0.02 0.02,-0.02l0 0.04zm0.02 -0.17l0 0.15 -0.04 0 0 -0.15 0.04 0zm0 0l-0.04 0 0 -0.02 0.04 0 0 0.02z"/>
   </g>
   <g>
    <path class="fil3" d="M0.71 0c0.01,0 0.02,0.01 0.02,0.02 0,0.01 -0.01,0.02 -0.02,0.02l0 -0.04zm-0.2 0l0.2 0 0 0.04 -0.2 0 0 -0.04zm0 0.04c-0.01,0 -0.02,-0.01 -0.02,-0.02 0,-0.01 0.01,-0.02 0.02,-0.02l0 0.04z"/>
   </g>
   <g>
    <path class="fil3" d="M0 0.51c0,-0.01 0.01,-0.02 0.02,-0.02 0.01,0 0.02,0.01 0.02,0.02l-0.04 0zm0 0.2l0 -0.2 0.04 0 0 0.2 -0.04 0zm0.04 0c0,0.01 -0.01,0.02 -0.02,0.02 -0.01,0 -0.02,-0.01 -0.02,-0.02l0.04 0z"/>
   </g>
   <g>
    <path class="fil3" d="M0.71 1.18c0.01,0 0.02,0.01 0.02,0.02 0,0.01 -0.01,0.02 -0.02,0.02l0 -0.04zm-0.2 0l0.2 0 0 0.04 -0.2 0 0 -0.04zm0 0.04c-0.01,0 -0.02,-0.01 -0.02,-0.02 0,-0.01 0.01,-0.02 0.02,-0.02l0 0.04z"/>
   </g>
   <g>
    <path class="fil3" d="M1.18 0.51c0,-0.01 0.01,-0.02 0.02,-0.02 0.01,0 0.02,0.01 0.02,0.02l-0.04 0zm0 0.2l0 -0.2 0.04 0 0 0.2 -0.04 0zm0.04 0c0,0.01 -0.01,0.02 -0.02,0.02 -0.01,0 -0.02,-0.01 -0.02,-0.02l0.04 0z"/>
   </g>
  </g>
 </g>
</svg>
